<?xml version="1.0" encoding="UTF-8" standalone="no"?>
<!-- Created with Inkscape (http://www.inkscape.org/) -->

<svg
   width="81.5mm"
   height="25.5mm"
   viewBox="0 0 81.49999 25.499997"
   version="1.1"
   id="svg5"
   xml:space="preserve"
   sodipodi:docname="logo.svg"
   inkscape:export-filename="..\..\..\acesWebsit\root\images\logo\aceslogo.svg"
   inkscape:export-xdpi="96"
   inkscape:export-ydpi="96"
   inkscape:version="1.2.2 (732a01da63, 2022-12-09)"
   xmlns:inkscape="http://www.inkscape.org/namespaces/inkscape"
   xmlns:sodipodi="http://sodipodi.sourceforge.net/DTD/sodipodi-0.dtd"
   xmlns="http://www.w3.org/2000/svg"
   xmlns:svg="http://www.w3.org/2000/svg"><sodipodi:namedview
     id="namedview405"
     pagecolor="#ffffff"
     bordercolor="#000000"
     borderopacity="0.25"
     inkscape:showpageshadow="2"
     inkscape:pageopacity="0.0"
     inkscape:pagecheckerboard="0"
     inkscape:deskcolor="#d1d1d1"
     showgrid="false"
     inkscape:zoom="1.8833333"
     inkscape:rotation="1"
     inkscape:cx="158.5408"
     inkscape:cy="107.69196"
     inkscape:window-width="1366"
     inkscape:window-height="705"
     inkscape:window-x="-8"
     inkscape:window-y="-8"
     inkscape:window-maximized="1"
     inkscape:current-layer="svg5"
     inkscape:document-units="mm" /><defs
     id="defs2" /><g
     id="layer1"
     transform="translate(1.0583334,-28.849162)"><text
       xml:space="preserve"
       style="font-style:normal;font-variant:normal;font-weight:normal;font-stretch:normal;font-size:7.22639px;font-family:Impact;-inkscape-font-specification:'Impact, Normal';font-variant-ligatures:normal;font-variant-caps:normal;font-variant-numeric:normal;font-variant-east-asian:normal;opacity:1;fill:#2e8a56;fill-opacity:1;"
       x="28.460627"
       y="46.122032"
       id="text39070"
       transform="scale(1.1571304,0.86420685)"><tspan
         id="tspan39068"
         style="font-style:normal;font-variant:normal;font-weight:normal;font-stretch:normal;font-size:7.22639px;font-family:Impact;-inkscape-font-specification:'Impact, Normal';font-variant-ligatures:normal;font-variant-caps:normal;font-variant-numeric:normal;font-variant-east-asian:normal;fill:#2e8a56;fill-opacity:1;"
         x="28.460627"
         y="46.122032">AcesMovers</tspan></text><g
       id="g1092"><path
         style="opacity:1;fill:#0000ff;fill-opacity:1;stroke:#000000;stroke-width:0;stroke-dasharray:none;paint-order:markers stroke fill"
         d="m 6.1522357,40.020527 c -0.521963,0 -0.9421365,0.420173 -0.9421365,0.942136 0,0.521963 0.4201735,0.942137 0.9421365,0.942137 H 14.8694 c -0.417424,-0.557891 -0.70587,-1.201445 -0.844547,-1.884273 z"
         id="path1102" /><path
         style="opacity:1;fill:#0000ff;fill-opacity:1;stroke:#000000;stroke-width:0;stroke-dasharray:none;paint-order:markers stroke fill"
         d="m 3.3053786,36.734047 c -0.5219472,0 -0.9421367,0.420189 -0.9421367,0.942137 0,0.521947 0.4201895,0.942136 0.9421367,0.942136 h 3.6486488 c 0.5219467,0 0.9421368,-0.420189 0.9421368,-0.942136 0,-0.521948 -0.4201901,-0.942137 -0.9421368,-0.942137 z"
         id="path1100" /><path
         style="opacity:1;fill:#0000ff;fill-opacity:1;stroke:#000000;stroke-width:0;stroke-dasharray:none;paint-order:markers stroke fill"
         d="m 9.4154793,36.626233 c -0.5219461,0 -0.9421367,0.42019 -0.9421367,0.942136 0,0.521946 0.4201906,0.942137 0.9421367,0.942137 h 4.5474117 c 0.01659,-0.140896 0.03954,-0.28097 0.06878,-0.419794 0.112153,-0.517737 0.310845,-1.012844 0.587712,-1.464479 z"
         id="path1098" /><path
         style="opacity:1;fill:#0000ff;fill-opacity:1;stroke:#000000;stroke-width:0;stroke-dasharray:none;paint-order:markers stroke fill"
         d="m 18.437498,36.242376 c -1.514994,1.1e-5 -2.751587,1.191973 -2.82314,2.68925 -0.0022,0.04545 -0.0033,0.09117 -0.0033,0.13716 1.2e-5,1.560978 1.265433,2.826398 2.826411,2.826409 1.560977,-1.2e-5 2.826397,-1.265432 2.826409,-2.826409 -1.2e-5,-1.560978 -1.265431,-2.826398 -2.826409,-2.82641 z"
         id="path1096" /><path
         style="opacity:1;fill:#2e8a56;fill-opacity:1;stroke:#000000;stroke-width:0;stroke-dasharray:none;paint-order:markers stroke fill"
         d="m 18.999185,29.314684 c -0.161361,0.0018 -0.325323,0.0093 -0.49198,0.02293 -2.919566,0.03805 -5.170315,1.195454 -6.947521,3.145513 H 8.6505547 c -0.5219461,0 -0.9421362,0.42019 -0.9421362,0.942137 0,0.521946 0.4201901,0.942137 0.9421362,0.942137 h 1.6054423 3.548581 4.832128 c 2.622121,0 4.73299,2.10087 4.73299,4.710682 0,2.609814 -2.110869,4.710993 -4.73299,4.710993 h -7.953169 l 3.1e-4,3.09e-4 H 0.94213701 c -0.52194608,0 -0.94213673763247,0.42019 -0.94213673763247,0.942137 0,0.521946 0.42019065763247,0.942137 0.94213673763247,0.942137 h 10.79568799 1.320417 3.204999 c 0.521962,0 0.942136,0.420173 0.942136,0.942136 0,0.521963 -0.420174,0.942137 -0.942136,0.942137 h -1.62589 -2.69536 c -0.521964,0 -0.942137,0.420172 -0.942137,0.942136 0,0.521964 0.420173,0.942137 0.942137,0.942137 h 2.357046 c 0.07959,0.108164 0.159357,0.216713 0.238554,0.324063 1.059904,1.367444 2.153416,2.791337 3.485378,3.834845 0.147558,0.08299 0.270721,0.233842 0.443651,0.24661 0.124736,0.0093 0.247623,-0.02616 0.368365,-0.118658 l 0.819452,-0.694597 c 2.091695,-2.017803 4.009916,-4.516262 5.814231,-7.663805 0.598958,-1.123818 1.996391,-3.063266 2.271227,-5.327517 0.437182,-1.507354 0.07215,-3.088083 -0.645337,-5.035675 -0.53665,-1.211869 -1.473119,-2.803752 -2.852124,-3.703485 -1.391958,-1.010435 -3.024739,-1.96384 -5.082766,-1.989299 -0.05323,-6.59e-4 -0.106695,-5.99e-4 -0.160483,0 z"
         id="rect48421" /></g><text
       xml:space="preserve"
       style="font-style:normal;font-variant:normal;font-weight:normal;font-stretch:normal;font-size:4.74469px;font-family:Impact;-inkscape-font-specification:'Impact, Normal';font-variant-ligatures:normal;font-variant-caps:normal;font-variant-numeric:normal;font-variant-east-asian:normal;fill:#2e8a56;fill-opacity:1;"
       x="36.882816"
       y="48.490662"
       id="text39070-0"
       transform="scale(1.035015,0.96616959)"><tspan
         id="tspan39068-0"
         style="font-style:normal;font-variant:normal;font-weight:normal;font-stretch:normal;font-size:4.74469px;font-family:Impact;-inkscape-font-specification:'Impact, Normal';font-variant-ligatures:normal;font-variant-caps:normal;font-variant-numeric:normal;font-variant-east-asian:normal;fill:#2e8a56;fill-opacity:1;"
         x="36.882816"
         y="48.490662">Act with simper</tspan></text><rect
       style="fill:#000000;fill-opacity:0;stroke-width:0.584718"
       id="rect360"
       width="4.5227208"
       height="1.4552082"
       x="21.431248"
       y="14.552081" /><rect
       style="fill:#0000ff;fill-opacity:1;stroke-width:0.584045"
       id="rect460"
       width="50.139759"
       height="0.84189892"
       x="28.624563"
       y="41.160736" /></g></svg>
